<?xml version="1.0" encoding="UTF-8" standalone="no"?>
<!-- Created with Inkscape (http://www.inkscape.org/) -->

<svg
   width="251.08379mm"
   height="43.270271mm"
   viewBox="0 0 251.08379 43.270271"
   version="1.1"
   id="svg1"
   inkscape:version="1.3.2 (091e20e, 2023-11-25)"
   sodipodi:docname="deliverance_logo.svg"
   xmlns:inkscape="http://www.inkscape.org/namespaces/inkscape"
   xmlns:sodipodi="http://sodipodi.sourceforge.net/DTD/sodipodi-0.dtd"
   xmlns="http://www.w3.org/2000/svg"
   xmlns:svg="http://www.w3.org/2000/svg">
  <sodipodi:namedview
     id="namedview1"
     pagecolor="#ffffff"
     bordercolor="#000000"
     borderopacity="0.25"
     inkscape:showpageshadow="2"
     inkscape:pageopacity="0.0"
     inkscape:pagecheckerboard="true"
     inkscape:deskcolor="#d1d1d1"
     inkscape:document-units="mm"
     inkscape:zoom="0.40569444"
     inkscape:cx="224.30674"
     inkscape:cy="-61.622732"
     inkscape:window-width="1328"
     inkscape:window-height="723"
     inkscape:window-x="52"
     inkscape:window-y="23"
     inkscape:window-maximized="0"
     inkscape:current-layer="layer1" />
  <defs
     id="defs1">
    <clipPath
       clipPathUnits="userSpaceOnUse"
       id="clipPath2">
      <path
         d="M 0,595.276 H 841.89 V 0 H 0 Z"
         transform="translate(-219.71151,-260.88781)"
         id="path2" />
    </clipPath>
    <clipPath
       clipPathUnits="userSpaceOnUse"
       id="clipPath4">
      <path
         d="M 0,595.276 H 841.89 V 0 H 0 Z"
         transform="translate(-260.99481,-247.01941)"
         id="path4" />
    </clipPath>
    <clipPath
       clipPathUnits="userSpaceOnUse"
       id="clipPath6">
      <path
         d="M 0,595.276 H 841.89 V 0 H 0 Z"
         transform="translate(-287.12311,-246.37591)"
         id="path6" />
    </clipPath>
    <clipPath
       clipPathUnits="userSpaceOnUse"
       id="clipPath8">
      <path
         d="M 0,595.276 H 841.89 V 0 H 0 Z"
         transform="translate(-328.56741,-260.88781)"
         id="path8" />
    </clipPath>
    <clipPath
       clipPathUnits="userSpaceOnUse"
       id="clipPath10">
      <path
         d="M 0,595.276 H 841.89 V 0 H 0 Z"
         transform="translate(-354.91031,-274.0595)"
         id="path10" />
    </clipPath>
    <clipPath
       clipPathUnits="userSpaceOnUse"
       id="clipPath12">
      <path
         d="M 0,595.276 H 841.89 V 0 H 0 Z"
         transform="translate(-396.08841,-262.33481)"
         id="path12" />
    </clipPath>
    <clipPath
       clipPathUnits="userSpaceOnUse"
       id="clipPath14">
      <path
         d="M 0,595.276 H 841.89 V 0 H 0 Z"
         transform="translate(-422.75401,-274.0595)"
         id="path14" />
    </clipPath>
    <clipPath
       clipPathUnits="userSpaceOnUse"
       id="clipPath16">
      <path
         d="M 0,595.276 H 841.89 V 0 H 0 Z"
         id="path16" />
    </clipPath>
    <clipPath
       clipPathUnits="userSpaceOnUse"
       id="clipPath18">
      <path
         d="M 0,595.276 H 841.89 V 0 H 0 Z"
         transform="translate(-475.17391,-256.12151)"
         id="path18" />
    </clipPath>
    <clipPath
       clipPathUnits="userSpaceOnUse"
       id="clipPath20">
      <path
         d="M 0,595.276 H 841.89 V 0 H 0 Z"
         transform="translate(-520.09642,-260.88781)"
         id="path20" />
    </clipPath>
    <clipPath
       clipPathUnits="userSpaceOnUse"
       id="clipPath22">
      <path
         d="M 0,595.276 H 841.89 V 0 H 0 Z"
         transform="translate(-552.17021,-256.12151)"
         id="path22" />
    </clipPath>
    <clipPath
       clipPathUnits="userSpaceOnUse"
       id="clipPath24">
      <path
         d="M 0,595.276 H 841.89 V 0 H 0 Z"
         transform="translate(-187.9531,-339.02361)"
         id="path24" />
    </clipPath>
    <clipPath
       clipPathUnits="userSpaceOnUse"
       id="clipPath26">
      <path
         d="M 0,595.276 H 841.89 V 0 H 0 Z"
         id="path26" />
    </clipPath>
    <clipPath
       clipPathUnits="userSpaceOnUse"
       id="clipPath28">
      <path
         d="M 0,595.276 H 841.89 V 0 H 0 Z"
         transform="translate(-293.7562,-313.34781)"
         id="path28" />
    </clipPath>
    <clipPath
       clipPathUnits="userSpaceOnUse"
       id="clipPath30">
      <path
         d="M 0,595.276 H 841.89 V 0 H 0 Z"
         id="path30" />
    </clipPath>
    <clipPath
       clipPathUnits="userSpaceOnUse"
       id="clipPath32">
      <path
         d="M 0,595.276 H 841.89 V 0 H 0 Z"
         transform="translate(-395.25981,-310.33311)"
         id="path32" />
    </clipPath>
    <clipPath
       clipPathUnits="userSpaceOnUse"
       id="clipPath34">
      <path
         d="M 0,595.276 H 841.89 V 0 H 0 Z"
         id="path34" />
    </clipPath>
    <clipPath
       clipPathUnits="userSpaceOnUse"
       id="clipPath36">
      <path
         d="M 0,595.276 H 841.89 V 0 H 0 Z"
         transform="translate(-505.10122,-319.43631)"
         id="path36" />
    </clipPath>
    <clipPath
       clipPathUnits="userSpaceOnUse"
       id="clipPath38">
      <path
         d="M 0,595.276 H 841.89 V 0 H 0 Z"
         transform="translate(-556.39852,-299.85131)"
         id="path38" />
    </clipPath>
    <clipPath
       clipPathUnits="userSpaceOnUse"
       id="clipPath40">
      <path
         d="M 0,595.276 H 841.89 V 0 H 0 Z"
         transform="translate(-630.87011,-299.85131)"
         id="path40" />
    </clipPath>
    <clipPath
       clipPathUnits="userSpaceOnUse"
       id="clipPath42">
      <path
         d="M 0,595.276 H 841.89 V 0 H 0 Z"
         transform="translate(-715.13822,-345.54151)"
         id="path42" />
    </clipPath>
    <clipPath
       clipPathUnits="userSpaceOnUse"
       id="clipPath44">
      <path
         d="M 0,595.276 H 841.89 V 0 H 0 Z"
         id="path44" />
    </clipPath>
    <clipPath
       clipPathUnits="userSpaceOnUse"
       id="clipPath46">
      <path
         d="M 0,595.276 H 841.89 V 0 H 0 Z"
         transform="translate(-128.6314,-358.96571)"
         id="path46" />
    </clipPath>
  </defs>
  <g
     inkscape:label="Capa 1"
     inkscape:groupmode="layer"
     id="layer1"
     transform="translate(20.6375,-127)">
    <path
       id="path1"
       d="m 0,0 h -27.415 c 0.32,-3.07 1.624,-5.605 3.908,-7.603 2.284,-2.001 4.981,-2.981 8.085,-2.946 4.82,0.071 8.264,2.305 10.334,6.693 h 4.338 c -1.142,-3.285 -3.072,-5.889 -5.782,-7.816 -2.714,-1.929 -5.73,-2.91 -9.05,-2.947 -4.177,-0.07 -7.871,1.456 -11.084,4.578 -3.214,3.126 -4.855,6.847 -4.925,11.166 -0.11,4.569 1.507,8.504 4.845,11.807 3.338,3.301 7.272,4.828 11.807,4.578 4.069,-0.249 7.604,-1.929 10.601,-5.034 C -1.447,9.406 0,5.979 0,2.194 Z m -4.017,3.748 c -0.571,2.856 -1.91,5.166 -4.014,6.935 -2.108,1.768 -4.624,2.667 -7.551,2.703 -2.927,0.037 -5.489,-0.839 -7.683,-2.624 -2.197,-1.785 -3.58,-4.122 -4.15,-7.014 z"
       style="fill:#FFFFFF;fill-opacity:1;fill-rule:nonzero;stroke:none"
       transform="matrix(0.35277776,0,0,-0.35277776,33.913622,161.5997)"
       clip-path="url(#clipPath2)" />
    <path
       id="path3"
       d="m 0,0 h -4.071 v 17.83 c 0,2.571 -0.942,4.784 -2.825,6.642 -1.886,1.855 -4.084,2.783 -6.598,2.783 -2.548,0 -4.765,-0.928 -6.651,-2.783 -1.884,-1.858 -2.825,-4.071 -2.825,-6.642 V 0 h -4.071 v 17.404 c 0,3.961 1.286,7.254 3.855,9.878 2.571,2.624 5.801,3.936 9.692,3.936 3.856,0 7.07,-1.312 9.639,-3.936 C -1.286,24.658 0,21.365 0,17.404 Z"
       style="fill:#FFFFFF;fill-opacity:1;fill-rule:nonzero;stroke:none"
       transform="matrix(0.35277776,0,0,-0.35277776,48.477452,166.49217)"
       clip-path="url(#clipPath4)" />
    <path
       id="path5"
       d="m 0,0 c -7.425,0 -11.136,3.161 -11.136,9.478 v 32.397 h 4.07 V 31.219 H 0 V 27.416 H -7.066 V 10.175 C -7.066,5.639 -4.712,3.374 0,3.374 Z"
       style="fill:#FFFFFF;fill-opacity:1;fill-rule:nonzero;stroke:none"
       transform="matrix(0.35277776,0,0,-0.35277776,57.694935,166.71918)"
       clip-path="url(#clipPath6)" />
    <path
       id="path7"
       d="m 0,0 h -27.415 c 0.322,-3.07 1.624,-5.605 3.909,-7.603 2.284,-2.001 4.98,-2.981 8.084,-2.946 4.821,0.071 8.264,2.305 10.336,6.693 h 4.338 c -1.144,-3.285 -3.073,-5.889 -5.783,-7.816 -2.715,-1.929 -5.73,-2.91 -9.051,-2.947 -4.176,-0.07 -7.872,1.456 -11.083,4.578 -3.213,3.126 -4.856,6.847 -4.925,11.166 -0.109,4.569 1.506,8.504 4.845,11.807 3.337,3.301 7.273,4.828 11.806,4.578 4.07,-0.249 7.603,-1.929 10.601,-5.034 C -1.446,9.406 0,5.979 0,2.194 Z m -4.016,3.748 c -0.572,2.856 -1.91,5.166 -4.016,6.935 -2.107,1.768 -4.621,2.667 -7.55,2.703 -2.926,0.037 -5.489,-0.839 -7.683,-2.624 -2.195,-1.785 -3.579,-4.122 -4.15,-7.014 z"
       style="fill:#FFFFFF;fill-opacity:1;fill-rule:nonzero;stroke:none"
       transform="matrix(0.35277776,0,0,-0.35277776,72.315564,161.5997)"
       clip-path="url(#clipPath8)" />
    <path
       id="path9"
       d="m 0,0 c -1.893,-0.07 -3.428,-0.589 -4.605,-1.552 -1.177,-0.964 -1.982,-1.803 -2.41,-2.515 -0.677,-1.179 -1.016,-2.75 -1.016,-4.714 V -27.04 h -4.284 V 3.481 h 3.801 v -4.338 c 0.856,1.643 2.124,2.909 3.803,3.803 1.532,0.82 3.103,1.195 4.711,1.125 z"
       style="fill:#FFFFFF;fill-opacity:1;fill-rule:nonzero;stroke:none"
       transform="matrix(0.35277776,0,0,-0.35277776,81.608751,156.95302)"
       clip-path="url(#clipPath10)" />
    <path
       id="path11"
       d="m 0,0 c 0,-4.462 -1.589,-8.293 -4.766,-11.487 -3.177,-3.193 -6.961,-4.719 -11.351,-4.579 -4.498,0.182 -8.265,1.982 -11.298,5.411 v -15.37 h -3.962 v 25.758 0.212 c 0,4.39 1.596,8.184 4.791,11.379 3.195,3.193 6.989,4.718 11.379,4.578 4.247,-0.107 7.843,-1.715 10.789,-4.818 C -1.473,7.977 0,4.283 0,0 m -4.069,-0.322 c 0.034,3.225 -1.042,6.049 -3.229,8.469 -2.188,2.42 -4.858,3.685 -8.014,3.792 -3.372,0.179 -6.249,-0.986 -8.633,-3.496 -2.384,-2.509 -3.543,-5.448 -3.47,-8.821 0.071,-3.227 1.219,-5.986 3.443,-8.283 2.223,-2.292 4.913,-3.441 8.068,-3.441 3.229,0 5.987,1.149 8.282,3.441 2.296,2.297 3.481,5.074 3.553,8.339"
       style="fill:#FFFFFF;fill-opacity:1;fill-rule:nonzero;stroke:none"
       transform="matrix(0.35277776,0,0,-0.35277776,96.135472,161.08923)"
       clip-path="url(#clipPath12)" />
    <path
       id="path13"
       d="m 0,0 c -1.892,-0.07 -3.427,-0.589 -4.606,-1.552 -1.177,-0.964 -1.98,-1.803 -2.409,-2.515 -0.678,-1.179 -1.017,-2.75 -1.017,-4.714 V -27.04 h -4.283 V 3.481 h 3.802 v -4.338 c 0.855,1.643 2.122,2.909 3.801,3.803 1.533,0.82 3.104,1.195 4.712,1.125 z"
       style="fill:#FFFFFF;fill-opacity:1;fill-rule:nonzero;stroke:none"
       transform="matrix(0.35277776,0,0,-0.35277776,105.5425,156.95302)"
       clip-path="url(#clipPath14)" />
    <path
       id="path15"
       d="m 440.689,281.182 h -4.068 v 7.121 h 4.068 z m 0,-34.163 h -4.068 v 30.522 h 4.068 z"
       style="fill:#FFFFFF;fill-opacity:1;fill-rule:nonzero;stroke:none"
       transform="matrix(0.35277776,0,0,-0.35277776,-43.595713,253.63512)"
       clip-path="url(#clipPath16)" />
    <path
       id="path17"
       d="m 0,0 c 0.213,-2.748 -0.75,-5.132 -2.891,-7.147 -2.143,-2.017 -4.606,-2.936 -7.39,-2.757 -2.571,0.179 -4.723,1.213 -6.453,3.104 -1.732,1.893 -2.597,4.141 -2.597,6.748 h 4.231 v -1.027 c 0,-1.046 0.57,-2.126 1.713,-3.241 1.142,-1.118 2.355,-1.659 3.641,-1.621 1.712,0.034 3.07,0.554 4.069,1.557 0.891,0.928 1.357,2.149 1.394,3.652 0.033,2.615 -1.449,4.405 -4.454,5.372 l -3.58,1.139 c -3.749,1.178 -5.712,3.73 -5.889,7.657 -0.107,2.36 0.688,4.377 2.39,6.056 1.699,1.676 3.751,2.571 6.15,2.675 2.076,0.109 4.019,-0.561 5.827,-2.006 1.809,-1.445 2.783,-3.241 2.928,-5.381 v -0.909 h -4.283 v 0.703 c 0,1.084 -0.455,1.96 -1.366,2.629 -0.909,0.668 -1.954,1.003 -3.133,1.003 -1.143,-0.036 -2.132,-0.449 -2.972,-1.237 -0.838,-0.79 -1.275,-1.778 -1.312,-2.963 -0.142,-2.189 1.161,-3.749 3.91,-4.683 L -6.532,8.141 C -2.463,6.748 -0.286,4.034 0,0"
       style="fill:#FFFFFF;fill-opacity:1;fill-rule:nonzero;stroke:none"
       transform="matrix(0.35277776,0,0,-0.35277776,124.03508,163.28115)"
       clip-path="url(#clipPath18)" />
    <path
       id="path19"
       d="m 0,0 h -27.416 c 0.323,-3.07 1.626,-5.605 3.91,-7.603 2.284,-2.001 4.98,-2.981 8.084,-2.946 4.821,0.071 8.264,2.305 10.336,6.693 h 4.338 c -1.144,-3.285 -3.073,-5.889 -5.784,-7.816 -2.714,-1.929 -5.729,-2.91 -9.05,-2.947 -4.176,-0.07 -7.871,1.456 -11.082,4.578 -3.214,3.126 -4.857,6.847 -4.926,11.166 -0.109,4.569 1.506,8.504 4.844,11.807 3.338,3.301 7.274,4.828 11.807,4.578 4.07,-0.249 7.604,-1.929 10.601,-5.034 C -1.447,9.406 0,5.979 0,2.194 Z m -4.016,3.748 c -0.572,2.856 -1.91,5.166 -4.016,6.935 -2.107,1.768 -4.621,2.667 -7.55,2.703 -2.926,0.037 -5.489,-0.839 -7.683,-2.624 -2.195,-1.785 -3.579,-4.122 -4.151,-7.014 z"
       style="fill:#FFFFFF;fill-opacity:1;fill-rule:nonzero;stroke:none"
       transform="matrix(0.35277776,0,0,-0.35277776,139.88274,161.5997)"
       clip-path="url(#clipPath20)" />
    <path
       id="path21"
       d="m 0,0 c 0.213,-2.748 -0.749,-5.132 -2.891,-7.147 -2.143,-2.017 -4.606,-2.936 -7.391,-2.757 -2.57,0.179 -4.721,1.213 -6.45,3.104 -1.735,1.893 -2.598,4.141 -2.598,6.748 h 4.23 v -1.027 c 0,-1.046 0.569,-2.126 1.715,-3.241 1.14,-1.118 2.353,-1.659 3.639,-1.621 1.712,0.034 3.071,0.554 4.07,1.557 0.891,0.928 1.356,2.149 1.392,3.652 0.034,2.615 -1.449,4.405 -4.453,5.372 l -3.581,1.139 c -3.747,1.178 -5.71,3.73 -5.888,7.657 -0.107,2.36 0.688,4.377 2.39,6.056 1.699,1.676 3.751,2.571 6.15,2.675 2.075,0.109 4.019,-0.561 5.827,-2.006 1.809,-1.445 2.784,-3.241 2.929,-5.381 v -0.909 h -4.285 v 0.703 c 0,1.084 -0.455,1.96 -1.364,2.629 -0.91,0.668 -1.955,1.003 -3.135,1.003 -1.141,-0.036 -2.131,-0.449 -2.97,-1.237 -0.838,-0.79 -1.277,-1.778 -1.314,-2.963 -0.14,-2.189 1.162,-3.749 3.911,-4.683 L -6.532,8.141 C -2.462,6.748 -0.286,4.034 0,0"
       style="fill:#FFFFFF;fill-opacity:1;fill-rule:nonzero;stroke:none"
       transform="matrix(0.35277776,0,0,-0.35277776,151.19766,163.28115)"
       clip-path="url(#clipPath22)" />
    <path
       id="path23"
       d="m 0,0 v 6.518 h 8.771 c 12.562,0 22.847,-10.283 22.847,-22.844 0,-12.562 -10.285,-22.847 -22.847,-22.847 H 0 v 6.518 h 8.771 c 8.963,0 16.329,7.363 16.329,16.329 C 25.1,-7.363 17.734,0 8.771,0 Z"
       style="fill:#FFFFFF;fill-opacity:1;fill-rule:nonzero;stroke:none"
       transform="matrix(0.35277776,0,0,-0.35277776,22.709962,134.03513)"
       clip-path="url(#clipPath24)" />
    <path
       id="path25"
       d="m 240.854,345.541 h 31.62 v -6.522 h -31.62 z m 0,-19.583 h 31.62 v -6.524 h -31.62 z m 31.619,-26.107 h -31.62 v 6.524 h 31.62 z"
       style="fill:#FFFFFF;fill-opacity:1;fill-rule:nonzero;stroke:none"
       transform="matrix(0.35277776,0,0,-0.35277776,-43.595713,253.63512)"
       clip-path="url(#clipPath26)" />
    <path
       id="path27"
       d="M 0,0 V 32.194 H 6.518 V 0 c 0,-3.728 3.006,-6.826 6.7,-6.973 H 31.62 v -6.523 H 20.002 13.496 C 6.078,-13.496 0,-7.418 0,0"
       style="fill:#FFFFFF;fill-opacity:1;fill-rule:nonzero;stroke:none"
       transform="matrix(0.35277776,0,0,-0.35277776,60.034944,143.09298)"
       clip-path="url(#clipPath28)" />
    <path
       id="path29"
       d="m 353.184,299.851 h -6.524 v 45.69 h 6.524 z"
       style="fill:#FFFFFF;fill-opacity:1;fill-rule:nonzero;stroke:none"
       transform="matrix(0.35277776,0,0,-0.35277776,-43.595713,253.63512)"
       clip-path="url(#clipPath30)" />
    <path
       id="path31"
       d="m 0,0 c 0.975,-2.487 3.131,-3.958 5.8,-3.958 2.67,0 4.826,1.471 5.802,3.958 l 13.787,35.208 h 7.006 L 17.675,-2.379 c -1.952,-4.987 -6.52,-8.103 -11.875,-8.103 -5.353,0 -9.922,3.116 -11.874,8.103 l -14.72,37.587 h 7.006 z"
       style="fill:#FFFFFF;fill-opacity:1;fill-rule:nonzero;stroke:none"
       transform="matrix(0.35277776,0,0,-0.35277776,95.84316,144.1565)"
       clip-path="url(#clipPath32)" />
    <path
       id="path33"
       d="m 448.938,345.541 h 31.619 v -6.522 h -31.619 z m 0,-19.583 h 31.619 v -6.524 h -31.619 z m 31.619,-26.107 h -31.619 v 6.524 h 31.619 z"
       style="fill:#FFFFFF;fill-opacity:1;fill-rule:nonzero;stroke:none"
       transform="matrix(0.35277776,0,0,-0.35277776,-43.595713,253.63512)"
       clip-path="url(#clipPath34)" />
    <path
       id="path35"
       d="m 0,0 h 3.263 10.436 c 5.383,0 9.788,4.406 9.788,9.79 0,5.385 -4.405,9.791 -9.788,9.791 H 3.263 -3.261 v 6.524 H 0 3.263 13.699 c 8.971,0 16.315,-7.342 16.315,-16.314 0,-6.301 -3.619,-11.796 -8.882,-14.511 l 0.027,-0.048 3.156,-5.274 5.699,-9.543 h -7.595 l -6.86,11.469 -0.012,0.024 -0.021,0.034 c -0.61,0.979 -1.61,1.534 -2.769,1.534 H 6.958 3.263 -3.261 V 0 Z"
       style="fill:#FFFFFF;fill-opacity:1;fill-rule:nonzero;stroke:none"
       transform="matrix(0.35277776,0,0,-0.35277776,134.59276,140.94509)"
       clip-path="url(#clipPath36)" />
    <path
       id="path37"
       d="m 0,0 14.72,37.587 c 1.952,4.987 6.519,8.103 11.873,8.103 5.356,0 9.923,-3.116 11.876,-8.103 L 53.189,0 H 46.183 L 32.395,35.21 c -0.975,2.486 -3.132,3.958 -5.802,3.958 -2.668,0 -4.827,-1.472 -5.799,-3.958 L 7.006,0 Z"
       style="fill:#FFFFFF;fill-opacity:1;fill-rule:nonzero;stroke:none"
       transform="matrix(0.35277776,0,0,-0.35277776,152.68931,147.85425)"
       clip-path="url(#clipPath38)" />
    <path
       id="path39"
       d="m 0,0 v 25.623 c 0,11.036 9.03,20.067 20.069,20.067 11.04,0 20.07,-9.031 20.07,-20.067 V 0 h -6.526 v 25.62 c 0,7.451 -6.093,13.546 -13.544,13.546 -7.45,0 -13.545,-6.095 -13.545,-13.546 L 6.524,0 Z"
       style="fill:#FFFFFF;fill-opacity:1;fill-rule:nonzero;stroke:none"
       transform="matrix(0.35277776,0,0,-0.35277776,178.96124,147.85425)"
       clip-path="url(#clipPath40)" />
    <path
       id="path41"
       d="M 0,0 H 8.771 V -6.518 H 0 c -8.963,0 -16.329,-7.363 -16.329,-16.326 0,-8.966 7.364,-16.329 16.329,-16.329 H 8.771 V -45.69 H 0 c -12.562,0 -22.846,10.285 -22.846,22.846 C -22.846,-10.283 -12.562,0 0,0"
       style="fill:#FFFFFF;fill-opacity:1;fill-rule:nonzero;stroke:none"
       transform="matrix(0.35277776,0,0,-0.35277776,208.68915,131.73576)"
       clip-path="url(#clipPath42)" />
    <path
       id="path43"
       d="m 745.192,339.019 h 31.62 v 6.523 h -31.62 z m 0,-19.584 h 31.62 v 6.523 h -31.62 z m 0,-19.584 h 31.62 v 6.523 h -31.62 z"
       style="fill:#FFFFFF;fill-opacity:1;fill-rule:nonzero;stroke:none"
       transform="matrix(0.35277776,0,0,-0.35277776,-43.595713,253.63512)"
       clip-path="url(#clipPath44)" />
    <path
       id="path45"
       d="m 0,0 v -11.067 l -13.72,7.921 -49.833,-28.771 v -57.541 l 49.833,-28.771 49.832,28.771 v 57.541 L 21.621,-23.55 V 0 Z m -56.331,-85.288 v 49.202 l 42.611,24.601 13.718,-7.921 0.001,-8.34 -13.719,7.92 -35.388,-20.43 v -40.862 l 35.388,-20.431 35.386,20.431 v 49.201 l 7.224,-4.17 v -49.201 l -42.61,-24.601 z m 28.891,16.68 v 15.842 l 13.72,7.922 L 0,-52.766 v -15.842 l -13.72,-7.922 z"
       style="fill:#FFFFFF;fill-opacity:1;fill-rule:nonzero;stroke:none"
       transform="matrix(0.35277776,0,0,-0.35277776,1.782585,127)"
       clip-path="url(#clipPath46)" />
  </g>
</svg>
